<?xml version="1.0" encoding="UTF-8"?>
<svg version="1.1" xmlns="http://www.w3.org/2000/svg" width="584" height="428">
<path d="M0 0 C192.72 0 385.44 0 584 0 C584 141.24 584 282.48 584 428 C391.28 428 198.56 428 0 428 C0 286.76 0 145.52 0 0 Z " fill="#14161B" transform="translate(0,0)"/>
<path d="M0 0 C0.69609375 0.36867187 1.3921875 0.73734375 2.109375 1.1171875 C4.29083598 2.24072192 6.39998504 2.92958741 8.75 3.625 C15.30040256 5.72844515 21.1013909 9.57821363 26.1875 14.1875 C26.1875 14.8475 26.1875 15.5075 26.1875 16.1875 C27.1775 16.5175 28.1675 16.8475 29.1875 17.1875 C30.66015625 18.68359375 30.66015625 18.68359375 32.25 20.625 C35.08806782 23.97908015 38.05674344 27.10439575 41.1875 30.1875 C44.09803801 33.06307659 46.91174022 35.94624094 49.5625 39.0625 C52.60180701 42.62036176 55.86113368 45.90192297 59.1875 49.1875 C63.0996143 53.05164233 66.83140093 56.9725418 70.38671875 61.171875 C73.49515741 64.6511686 76.88631724 67.85133895 80.24609375 71.0859375 C82.1875 73.1875 82.1875 73.1875 82.1875 75.1875 C82.72503906 75.39117187 83.26257813 75.59484375 83.81640625 75.8046875 C87.15857533 77.75382729 89.55025352 80.47495898 92.125 83.3125 C92.65843018 83.89563965 93.19186035 84.4787793 93.74145508 85.07958984 C100.38466484 92.46593139 104.36001126 98.71181749 104.5 108.875 C104.52900391 109.55755859 104.55800781 110.24011719 104.58789062 110.94335938 C104.68238493 118.6410105 101.72621329 123.77756985 96.5078125 129.29296875 C95.11962381 130.6641003 93.7209537 132.02469347 92.3125 133.375 C91.61769531 134.06013672 90.92289063 134.74527344 90.20703125 135.45117188 C87.22367419 138.36991762 84.22050537 141.21639107 80.9921875 143.86328125 C78.21027348 146.16862783 75.70633599 148.59971037 73.1875 151.1875 C67.98490836 156.46647553 62.78522828 161.64212774 57.140625 166.44921875 C54.22450871 169.04456225 51.54302042 171.85809908 48.8515625 174.68359375 C47.1875 176.1875 47.1875 176.1875 45.1875 176.1875 C44.8575 177.1775 44.5275 178.1675 44.1875 179.1875 C42.76171875 180.58984375 42.76171875 180.58984375 40.875 182.125 C37.14069752 185.27811408 33.72483239 188.63531269 30.3125 192.125 C13.1908314 209.45718091 13.1908314 209.45718091 1.23632812 209.65429688 C0.56021484 209.64462891 -0.11589844 209.63496094 -0.8125 209.625 C-1.51439453 209.62177734 -2.21628906 209.61855469 -2.93945312 209.61523438 C-8.35468134 209.46860355 -11.62053284 208.54107373 -15.8125 205.1875 C-13.32025755 203.52600504 -11.16549016 202.40916306 -8.4375 201.25 C-6.89579578 200.56258422 -5.35412552 199.87509227 -3.8125 199.1875 C-2.4821875 198.5996875 -2.4821875 198.5996875 -1.125 198 C4.21791524 193.81230968 7.42129297 187.65002709 9.1875 181.1875 C10.19200857 171.87827521 9.24705932 164.43724831 3.46875 156.96484375 C0.8427186 153.8992859 -1.94626982 151.02759434 -4.8125 148.1875 C-3.14687996 143.85477953 0.06199967 141.05228055 3.3125 137.875 C3.90216553 137.29177979 4.49183105 136.70855957 5.09936523 136.10766602 C8.64802046 132.62132769 12.28420275 129.29256733 16.078125 126.07421875 C21.6076234 121.12838962 26.86553103 115.75692941 31.91796875 110.328125 C33.1875 109.1875 33.1875 109.1875 35.1875 109.1875 C34.630625 108.135625 34.07375 107.08375 33.5 106 C33.18675781 105.40832031 32.87351562 104.81664062 32.55078125 104.20703125 C30.73708739 101.52026986 28.49791241 99.46153281 26.1875 97.1875 C25.34010254 96.34533936 24.49270508 95.50317871 23.61962891 94.63549805 C22.72679199 93.74902588 21.83395508 92.86255371 20.9140625 91.94921875 C19.39836753 90.4409077 17.88315937 88.9321095 16.36816406 87.4230957 C15.3355389 86.3954943 14.30201732 85.36879286 13.26757812 84.34301758 C7.86730065 78.98659586 2.52300491 73.62950619 -2.39697266 67.81958008 C-2.86409668 67.28099365 -3.3312207 66.74240723 -3.8125 66.1875 C-4.28606934 65.60057373 -4.75963867 65.01364746 -5.24755859 64.40893555 C-6.73874843 62.96937533 -6.73874843 62.96937533 -8.76293945 63.29272461 C-11.20887531 64.36054533 -12.6883048 65.64667652 -14.60546875 67.50390625 C-15.66882446 68.52194336 -15.66882446 68.52194336 -16.75366211 69.56054688 C-17.49495361 70.28306641 -18.23624512 71.00558594 -19 71.75 C-20.52533078 73.21037828 -22.0513659 74.67002128 -23.578125 76.12890625 C-24.30837891 76.83031738 -25.03863281 77.53172852 -25.79101562 78.25439453 C-28.24638192 80.60241268 -30.72926411 82.90977623 -33.25 85.1875 C-33.90871094 85.785625 -34.56742187 86.38375 -35.24609375 87 C-36.8125 88.1875 -36.8125 88.1875 -38.8125 88.1875 C-39.18761719 89.06921875 -39.18761719 89.06921875 -39.5703125 89.96875 C-40.97676885 92.48091102 -42.47890992 93.85395352 -44.6875 95.6875 C-46.96887637 97.60931162 -49.10251192 99.48514382 -51.1875 101.625 C-52.8125 103.1875 -52.8125 103.1875 -54.8125 103.1875 C-55.3075 104.6725 -55.3075 104.6725 -55.8125 106.1875 C-57.875 106.875 -57.875 106.875 -59.8125 107.1875 C-59.8125 107.8475 -59.8125 108.5075 -59.8125 109.1875 C-60.8025 109.1875 -61.7925 109.1875 -62.8125 109.1875 C-62.8125 109.8475 -62.8125 110.5075 -62.8125 111.1875 C-64.7925 111.6825 -64.7925 111.6825 -66.8125 112.1875 C-67.1425 113.8375 -67.4725 115.4875 -67.8125 117.1875 C-68.8025 117.1875 -69.7925 117.1875 -70.8125 117.1875 C-70.8125 117.8475 -70.8125 118.5075 -70.8125 119.1875 C-73.45142176 120.97055524 -75.78428863 122.17809621 -78.8125 123.1875 C-78.8125 123.8475 -78.8125 124.5075 -78.8125 125.1875 C-82.04063558 125.41452385 -85.26988689 125.61578723 -88.5 125.8125 C-89.41201172 125.87695312 -90.32402344 125.94140625 -91.26367188 126.0078125 C-96.96004973 126.33923812 -100.99813245 126.39367795 -105.65625 122.7421875 C-112.9776242 115.31720895 -118.02522683 107.67372447 -118.25 96.9375 C-118.01103506 86.39914604 -113.41021613 80.20913473 -106.03613281 73.0859375 C-102.71040894 69.95846509 -99.31962148 66.90604431 -95.8515625 63.9375 C-90.69150695 59.50894658 -85.52499173 55.0321079 -80.8125 50.125 C-78.8125 48.1875 -78.8125 48.1875 -76.8125 48.1875 C-76.8125 47.5275 -76.8125 46.8675 -76.8125 46.1875 C-75.484375 44.84765625 -75.484375 44.84765625 -73.5625 43.25 C-69.90274146 40.14180081 -66.33965995 36.94453708 -62.8125 33.6875 C-55.4466112 26.92134877 -55.4466112 26.92134877 -52.1875 24 C-51.57648438 23.44957031 -50.96546875 22.89914063 -50.3359375 22.33203125 C-48.8125 21.1875 -48.8125 21.1875 -46.8125 21.1875 C-46.48572266 20.36185547 -46.48572266 20.36185547 -46.15234375 19.51953125 C-44.37930315 16.43351014 -41.98776504 14.23754112 -39.375 11.875 C-38.84656494 11.39369629 -38.31812988 10.91239258 -37.77368164 10.41650391 C-27.21692407 1.0267856 -14.26505203 -6.61494448 0 0 Z " fill="#A19797" transform="translate(286.8125,130.8125)"/>
<path d="M0 0 C2.52984829 1.37246831 4.24171233 3.03783499 6.2421875 5.109375 C6.96019531 5.84285156 7.67820312 6.57632813 8.41796875 7.33203125 C10.39093586 9.46455402 12.29657294 11.62378464 14.19140625 13.82421875 C18.06690345 18.27788357 22.21940562 22.41191122 26.4296875 26.546875 C42.01770625 41.85603831 42.01770625 41.85603831 42.9296875 47.046875 C42.2696875 47.046875 41.6096875 47.046875 40.9296875 47.046875 C40.5996875 48.036875 40.2696875 49.026875 39.9296875 50.046875 C38.50390625 51.44921875 38.50390625 51.44921875 36.6171875 52.984375 C32.85545845 56.16529849 29.38265931 59.54070538 25.9296875 63.046875 C22.02489021 67.00156996 18.05573039 70.77524187 13.8203125 74.37890625 C10.35958933 77.43206492 7.15284563 80.74656681 3.9296875 84.046875 C5.29085648 87.14656673 6.79822477 89.04215307 9.3046875 91.296875 C15.26199096 97.05560168 18.05542904 103.8625148 18.2421875 112.109375 C18.17342647 119.82780072 16.3298573 126.14863974 11.6796875 132.359375 C5.66098294 138.24129082 -1.54577624 142.36048377 -10.0703125 143.046875 C-16.96264108 141.88488889 -23.71296663 139.63888574 -29.0703125 135.046875 C-29.0703125 134.386875 -29.0703125 133.726875 -29.0703125 133.046875 C-29.7096875 132.77875 -30.3490625 132.510625 -31.0078125 132.234375 C-33.0703125 131.046875 -33.0703125 131.046875 -34.0703125 128.046875 C-34.7303125 128.046875 -35.3903125 128.046875 -36.0703125 128.046875 C-37.515625 126.61328125 -37.515625 126.61328125 -39.1953125 124.609375 C-40.12150391 123.52076172 -40.12150391 123.52076172 -41.06640625 122.41015625 C-41.72769531 121.63027344 -42.38898438 120.85039062 -43.0703125 120.046875 C-44.46117232 118.45917096 -45.85696517 116.87577395 -47.2578125 115.296875 C-47.89074219 114.58015625 -48.52367187 113.8634375 -49.17578125 113.125 C-50.44582605 111.73187869 -51.75034738 110.36947591 -53.0859375 109.0390625 C-55.6768689 106.43793058 -58.01481483 103.65136 -60.38671875 100.8515625 C-62.13797291 98.83564403 -62.13797291 98.83564403 -65.0703125 97.046875 C-65.4003125 96.056875 -65.7303125 95.066875 -66.0703125 94.046875 C-67.33875 92.7784375 -67.33875 92.7784375 -68.6328125 91.484375 C-69.4371875 90.68 -70.2415625 89.875625 -71.0703125 89.046875 C-71.0703125 88.386875 -71.0703125 87.726875 -71.0703125 87.046875 C-71.90755859 86.71623047 -71.90755859 86.71623047 -72.76171875 86.37890625 C-75.80555502 84.62264878 -77.69196741 82.37136964 -80.0078125 79.734375 C-82.48918226 76.92317865 -84.93991367 74.17290735 -87.63671875 71.56640625 C-90.0703125 69.046875 -90.0703125 69.046875 -94.0703125 63.046875 C-86.4803125 63.046875 -78.8903125 63.046875 -71.0703125 63.046875 C-71.0703125 62.386875 -71.0703125 61.726875 -71.0703125 61.046875 C-66.71737132 57.046875 -66.71737132 57.046875 -63.0703125 57.046875 C-63.0703125 56.386875 -63.0703125 55.726875 -63.0703125 55.046875 C-62.0803125 55.046875 -61.0903125 55.046875 -60.0703125 55.046875 C-59.7403125 53.396875 -59.4103125 51.746875 -59.0703125 50.046875 C-57.0903125 49.551875 -57.0903125 49.551875 -55.0703125 49.046875 C-55.0703125 48.386875 -55.0703125 47.726875 -55.0703125 47.046875 C-54.0803125 47.046875 -53.0903125 47.046875 -52.0703125 47.046875 C-52.0703125 46.386875 -52.0703125 45.726875 -52.0703125 45.046875 C-51.5134375 44.82 -50.9565625 44.593125 -50.3828125 44.359375 C-47.39069647 42.66114698 -45.45430715 40.53923304 -43.0703125 38.046875 C-38.65818253 33.53037206 -34.17116896 29.19780816 -29.38671875 25.078125 C-26.48478477 22.53342741 -23.652729 19.91841996 -20.8203125 17.296875 C-20.26907715 16.78970947 -19.7178418 16.28254395 -19.14990234 15.76000977 C-16.3030448 13.13629768 -13.48496378 10.48965143 -10.70703125 7.79296875 C-10.16916992 7.27895508 -9.63130859 6.76494141 -9.07714844 6.23535156 C-8.05106697 5.25396562 -7.03429282 4.26273064 -6.02832031 3.26074219 C-2.65337246 0.06007636 -2.65337246 0.06007636 0 0 Z " fill="#366878" transform="translate(279.0703125,192.953125)"/>
<path d="M0 0 C0.69609375 0.36867187 1.3921875 0.73734375 2.109375 1.1171875 C4.29083598 2.24072192 6.39998504 2.92958741 8.75 3.625 C15.30040256 5.72844515 21.1013909 9.57821363 26.1875 14.1875 C26.1875 14.8475 26.1875 15.5075 26.1875 16.1875 C27.1775 16.5175 28.1675 16.8475 29.1875 17.1875 C30.57326923 18.81082967 31.91391268 20.47474465 33.1875 22.1875 C31.2075 24.4975 29.2275 26.8075 27.1875 29.1875 C25.1919484 25.19639681 24.99203935 23.48763434 25.1875 19.1875 C24.1975 19.1875 23.2075 19.1875 22.1875 19.1875 C21.8575 19.8475 21.5275 20.5075 21.1875 21.1875 C20.8575 20.5275 20.5275 19.8675 20.1875 19.1875 C17.7608503 21.15080163 17.7608503 21.15080163 18.125 24.875 C18.14175781 25.5865625 18.15851563 26.298125 18.17578125 27.03125 C18.20956769 33.24795413 17.33180514 38.85399147 13.0625 43.5 C11.41694029 45.0382406 9.76962839 46.57462257 8.1171875 48.10546875 C7.03824219 49.13607422 7.03824219 49.13607422 5.9375 50.1875 C5.25171875 50.826875 4.5659375 51.46625 3.859375 52.125 C1.90267257 54.5388759 1.44385421 56.11124953 1.1875 59.1875 C1.5175 60.1775 1.8475 61.1675 2.1875 62.1875 C1.73108928 64.62169051 0.97258824 66.83223528 0.1875 69.1875 C-0.27140625 68.74277344 -0.7303125 68.29804688 -1.203125 67.83984375 C-1.81671875 67.27394531 -2.4303125 66.70804687 -3.0625 66.125 C-3.66578125 65.55652344 -4.2690625 64.98804688 -4.890625 64.40234375 C-6.70308526 62.9753598 -6.70308526 62.9753598 -8.69555664 63.40429688 C-11.26626128 64.35537754 -12.63876704 65.5986874 -14.60546875 67.50390625 C-15.66882446 68.52194336 -15.66882446 68.52194336 -16.75366211 69.56054688 C-17.49495361 70.28306641 -18.23624512 71.00558594 -19 71.75 C-20.52533078 73.21037828 -22.0513659 74.67002128 -23.578125 76.12890625 C-24.30837891 76.83031738 -25.03863281 77.53172852 -25.79101562 78.25439453 C-28.24638192 80.60241268 -30.72926411 82.90977623 -33.25 85.1875 C-33.90871094 85.785625 -34.56742187 86.38375 -35.24609375 87 C-36.8125 88.1875 -36.8125 88.1875 -38.8125 88.1875 C-39.18761719 89.06921875 -39.18761719 89.06921875 -39.5703125 89.96875 C-40.97676885 92.48091102 -42.47890992 93.85395352 -44.6875 95.6875 C-46.96887637 97.60931162 -49.10251192 99.48514382 -51.1875 101.625 C-52.8125 103.1875 -52.8125 103.1875 -54.8125 103.1875 C-55.3075 104.6725 -55.3075 104.6725 -55.8125 106.1875 C-57.875 106.875 -57.875 106.875 -59.8125 107.1875 C-59.8125 107.8475 -59.8125 108.5075 -59.8125 109.1875 C-60.8025 109.1875 -61.7925 109.1875 -62.8125 109.1875 C-62.8125 109.8475 -62.8125 110.5075 -62.8125 111.1875 C-64.7925 111.6825 -64.7925 111.6825 -66.8125 112.1875 C-67.1425 113.8375 -67.4725 115.4875 -67.8125 117.1875 C-68.8025 117.1875 -69.7925 117.1875 -70.8125 117.1875 C-70.8125 117.8475 -70.8125 118.5075 -70.8125 119.1875 C-73.45142176 120.97055524 -75.78428863 122.17809621 -78.8125 123.1875 C-78.8125 123.8475 -78.8125 124.5075 -78.8125 125.1875 C-82.04063558 125.41452385 -85.26988689 125.61578723 -88.5 125.8125 C-89.41201172 125.87695312 -90.32402344 125.94140625 -91.26367188 126.0078125 C-96.96004973 126.33923812 -100.99813245 126.39367795 -105.65625 122.7421875 C-112.9776242 115.31720895 -118.02522683 107.67372447 -118.25 96.9375 C-118.01103506 86.39914604 -113.41021613 80.20913473 -106.03613281 73.0859375 C-102.71040894 69.95846509 -99.31962148 66.90604431 -95.8515625 63.9375 C-90.69150695 59.50894658 -85.52499173 55.0321079 -80.8125 50.125 C-78.8125 48.1875 -78.8125 48.1875 -76.8125 48.1875 C-76.8125 47.5275 -76.8125 46.8675 -76.8125 46.1875 C-75.484375 44.84765625 -75.484375 44.84765625 -73.5625 43.25 C-69.90274146 40.14180081 -66.33965995 36.94453708 -62.8125 33.6875 C-55.4466112 26.92134877 -55.4466112 26.92134877 -52.1875 24 C-51.57648438 23.44957031 -50.96546875 22.89914063 -50.3359375 22.33203125 C-48.8125 21.1875 -48.8125 21.1875 -46.8125 21.1875 C-46.48572266 20.36185547 -46.48572266 20.36185547 -46.15234375 19.51953125 C-44.37930315 16.43351014 -41.98776504 14.23754112 -39.375 11.875 C-38.84656494 11.39369629 -38.31812988 10.91239258 -37.77368164 10.41650391 C-27.21692407 1.0267856 -14.26505203 -6.61494448 0 0 Z " fill="#6676A5" transform="translate(286.8125,130.8125)"/>
<path d="M0 0 C2.52984829 1.37246831 4.24171233 3.03783499 6.2421875 5.109375 C6.96019531 5.84285156 7.67820312 6.57632813 8.41796875 7.33203125 C10.39093586 9.46455402 12.29657294 11.62378464 14.19140625 13.82421875 C18.06690345 18.27788357 22.21940562 22.41191122 26.4296875 26.546875 C42.01770625 41.85603831 42.01770625 41.85603831 42.9296875 47.046875 C42.2696875 47.046875 41.6096875 47.046875 40.9296875 47.046875 C40.5996875 48.036875 40.2696875 49.026875 39.9296875 50.046875 C38.50390625 51.44921875 38.50390625 51.44921875 36.6171875 52.984375 C32.85545813 56.16529876 29.38266323 59.54070976 25.9296875 63.046875 C22.04485238 66.98128318 18.10087478 70.73666083 13.87890625 74.3125 C10.69058724 77.14940108 7.76401872 80.24414956 4.8125 83.32421875 C2.9296875 85.046875 2.9296875 85.046875 0.9296875 85.046875 C-0.33654471 83.61695911 -1.53034566 82.12293231 -2.6953125 80.609375 C-6.82801711 75.44183585 -11.20440377 70.59660498 -15.7578125 65.796875 C-16.44020996 65.07733643 -17.12260742 64.35779785 -17.82568359 63.61645508 C-19.21622606 62.15246044 -20.6075034 60.68916344 -21.99951172 59.2265625 C-25.28863022 55.76449577 -28.55696862 52.28322347 -31.8203125 48.796875 C-32.39225342 48.1894043 -32.96419434 47.58193359 -33.5534668 46.95605469 C-36.54606484 43.75903807 -39.38594921 40.51309168 -42.0703125 37.046875 C-38.00811519 32.87042839 -33.83187869 28.91882498 -29.421875 25.11328125 C-26.51022404 22.55470424 -23.66495658 19.92945695 -20.8203125 17.296875 C-20.26915771 16.78979004 -19.71800293 16.28270508 -19.15014648 15.76025391 C-16.3032207 13.13644659 -13.48504622 10.48973145 -10.70703125 7.79296875 C-10.16916992 7.27895508 -9.63130859 6.76494141 -9.07714844 6.23535156 C-8.05106697 5.25396562 -7.03429282 4.26273064 -6.02832031 3.26074219 C-2.65337246 0.06007636 -2.65337246 0.06007636 0 0 Z " fill="#1E2434" transform="translate(279.0703125,192.953125)"/>
<path d="M0 0 C0.8971875 0.7115625 0.8971875 0.7115625 1.8125 1.4375 C4.00382924 3.16465744 4.00382924 3.16465744 7 4 C6.125 10.875 6.125 10.875 5 12 C5.03222848 14.03039402 5.06811619 16.06128092 5.16015625 18.08984375 C5 20 5 20 3 22 C2.83312552 24.58354218 2.83312552 24.58354218 3 27 C2.34 27 1.68 27 1 27 C0.67 29.64 0.34 32.28 0 35 C-0.763125 35.061875 -1.52625 35.12375 -2.3125 35.1875 C-5.23051809 35.76935262 -5.23051809 35.76935262 -6.8125 38.5625 C-7.204375 39.366875 -7.59625 40.17125 -8 41 C-6.99163938 42.23267348 -6.99163938 42.23267348 -4.93359375 42.09765625 C-4.10988281 42.08605469 -3.28617187 42.07445312 -2.4375 42.0625 C-1.61121094 42.05347656 -0.78492188 42.04445313 0.06640625 42.03515625 C0.70449219 42.02355469 1.34257812 42.01195312 2 42 C1.67 40.68 1.34 39.36 1 38 C1.99 38 2.98 38 4 38 C5.67099977 37.68911632 7.33871537 37.35919668 9 37 C9 35.02 9 33.04 9 31 C9.99 31 10.98 31 12 31 C12 30.34 12 29.68 12 29 C13.98 29.33 15.96 29.66 18 30 C18 29.34 18 28.68 18 28 C18.66 28 19.32 28 20 28 C20.66 27.34 21.32 26.68 22 26 C22.474375 25.566875 22.94875 25.13375 23.4375 24.6875 C25.13292707 22.97213289 25.13292707 22.97213289 26.5 20.5 C27.84675671 18.25540548 29.08600196 16.74756343 31 15 C33.05270463 13.15811388 33.05270463 13.15811388 34 11 C35.32 11.66 36.64 12.32 38 13 C36.64738766 16.10699073 35.24756433 17.87539092 32.625 20 C28.90926524 23.13010265 25.51710101 26.46861303 22.125 29.9375 C5.00329809 47.26968146 5.00329809 47.26968146 -6.95117188 47.46679688 C-7.62728516 47.45712891 -8.30339844 47.44746094 -9 47.4375 C-9.70189453 47.43427734 -10.40378906 47.43105469 -11.12695312 47.42773438 C-16.54218134 47.28110355 -19.80803284 46.35357373 -24 43 C-21.50775755 41.33850504 -19.35299016 40.22166306 -16.625 39.0625 C-15.08329578 38.37508422 -13.54162552 37.68759227 -12 37 C-10.6696875 36.4121875 -10.6696875 36.4121875 -9.3125 35.8125 C-3.98361093 31.63580316 -0.73413723 25.45844566 1 19 C1.27657185 15.77351037 1.27657185 15.77351037 1.1875 12.5 C1.18105469 11.4171875 1.17460937 10.334375 1.16796875 9.21875 C1.00395535 6.07579556 0.58178555 3.09044483 0 0 Z " fill="#B4B7BC" transform="translate(295,293)"/>
<path d="M0 0 C5.04105044 0.48010004 7.95912956 1.99084116 12 5 C12.94875 5.70125 13.8975 6.4025 14.875 7.125 C15.57625 7.74375 16.2775 8.3625 17 9 C17 9.66 17 10.32 17 11 C17.99 11.33 18.98 11.66 20 12 C21.38576923 13.62332967 22.72641268 15.28724465 24 17 C22.02 19.31 20.04 21.62 18 24 C16.0044484 20.00889681 15.80453935 18.30013434 16 14 C15.01 14 14.02 14 13 14 C12.67 14.66 12.34 15.32 12 16 C11.67 15.34 11.34 14.68 11 14 C8.5733503 15.96330163 8.5733503 15.96330163 8.9375 19.6875 C8.96263672 20.75484375 8.96263672 20.75484375 8.98828125 21.84375 C9.02206769 28.06045413 8.14430514 33.66649147 3.875 38.3125 C2.22944029 39.8507406 0.58212839 41.38712257 -1.0703125 42.91796875 C-1.78960937 43.60503906 -2.50890625 44.29210937 -3.25 45 C-3.93578125 45.639375 -4.6215625 46.27875 -5.328125 46.9375 C-7.28482743 49.3513759 -7.74364579 50.92374953 -8 54 C-7.67 54.99 -7.34 55.98 -7 57 C-7.45641072 59.43419051 -8.21491176 61.64473528 -9 64 C-10.12588014 63.04270084 -11.2506715 62.08412105 -12.375 61.125 C-13.00148438 60.59132812 -13.62796875 60.05765625 -14.2734375 59.5078125 C-15.55836651 58.38567993 -16.79371975 57.20628025 -18 56 C-17.46890625 55.56429687 -16.9378125 55.12859375 -16.390625 54.6796875 C-12.12340547 51.08214111 -9.01615092 47.73966573 -6 43 C-2.6 40 -2.6 40 0 40 C0.28875 38.948125 0.5775 37.89625 0.875 36.8125 C2 33 2 33 3.03515625 30.7109375 C4.22692258 27.36241187 4.38693771 24.35736417 4.5625 20.8125 C4.90198366 14.19603267 4.90198366 14.19603267 6 12 C5.34 12 4.68 12 4 12 C3.67 10.02 3.34 8.04 3 6 C2.34 6 1.68 6 1 6 C0.67 6.66 0.34 7.32 0 8 C0 5.36 0 2.72 0 0 Z " fill="#886E86" transform="translate(296,136)"/>
<path d="M0 0 C0.66 0 1.32 0 2 0 C2 1.65 2 3.3 2 5 C1.236875 5.20625 0.47375 5.4125 -0.3125 5.625 C-3.87789164 7.44915386 -4.53557087 9.33892718 -6 13 C-6.165 13.7425 -6.33 14.485 -6.5 15.25 C-7 17 -7 17 -10 19 C-11.1446875 18.9071875 -11.1446875 18.9071875 -12.3125 18.8125 C-16.21681225 19.08489388 -18.42444362 21.25173867 -21 24 C-22.01187895 25.65948148 -23.0126546 27.32580562 -24 29 C-24.804375 29.639375 -25.60875 30.27875 -26.4375 30.9375 C-29.38347904 33.30865387 -30.93944559 35.84477606 -33 39 C-34.6292274 40.70328319 -36.28641357 42.38161281 -38 44 C-37.05125 44.20625 -36.1025 44.4125 -35.125 44.625 C-32 46 -32 46 -30.5625 48.75 C-29.9690487 52.17882974 -30.19846369 54.63354751 -31 58 C-33.94181937 55.12993232 -36.59660129 52.04604062 -39.28125 48.9375 C-40.80026938 47.22515088 -42.36215149 45.59790099 -44 44 C-42.33437996 39.66727953 -39.12550033 36.86478055 -35.875 33.6875 C-35.28533447 33.10427979 -34.69566895 32.52105957 -34.08813477 31.92016602 C-30.53347779 28.42793133 -26.89115668 25.09377131 -23.08984375 21.87109375 C-19.73350852 18.86607585 -16.61042983 15.63066772 -13.44580078 12.42626953 C-9.46300394 8.41292391 -5.31580888 4.65365738 -1 1 C-0.67 0.67 -0.34 0.34 0 0 Z " fill="#ABAEB4" transform="translate(326,235)"/>
<path d="M0 0 C-0.20625 0.94875 -0.4125 1.8975 -0.625 2.875 C-0.810625 4.421875 -0.810625 4.421875 -1 6 C-0.34 6.66 0.32 7.32 1 8 C0 9 0 9 -2.4375 9.0625 C-3.7059375 9.0315625 -3.7059375 9.0315625 -5 9 C-5.66 9 -6.32 9 -7 9 C-7 9.66 -7 10.32 -7 11 C-7.66 11.33 -8.32 11.66 -9 12 C-8.01 13.65 -7.02 15.3 -6 17 C-6.763125 16.79375 -7.52625 16.5875 -8.3125 16.375 C-11.21885944 15.66608797 -11.21885944 15.66608797 -14 18 C-14.99 18 -15.98 18 -17 18 C-17 18.66 -17 19.32 -17 20 C-17.598125 20.433125 -18.19625 20.86625 -18.8125 21.3125 C-21.14307725 22.88384677 -21.14307725 22.88384677 -22.375 25.4375 C-24.40322458 28.63585415 -26.82717795 29.99974262 -30 32 C-30.33 32.66 -30.66 33.32 -31 34 C-32.485 34.495 -32.485 34.495 -34 35 C-35.21869929 37.50447516 -35.21869929 37.50447516 -36 40 C-36.66 40 -37.32 40 -38 40 C-39.485 40.495 -39.485 40.495 -41 41 C-41 40.34 -41 39.68 -41 39 C-41.66 38.67 -42.32 38.34 -43 38 C-33.23919753 29.14583333 -33.23919753 29.14583333 -29.75 26.375 C-27.58263922 24.50318842 -25.92906746 22.80531682 -24.125 20.625 C-21.4211863 17.36781511 -18.45244245 14.70227802 -15.22265625 11.9765625 C-11.68327443 8.82906302 -8.45878908 5.37495679 -5.19921875 1.94140625 C-3 0 -3 0 0 0 Z " fill="#1D222F" transform="translate(390,255)"/>
<path d="M0 0 C2.375 0.625 2.375 0.625 5 2 C7.77878237 7.68127765 7.36756659 13.88161546 7.375 20.0625 C7.39949219 21.13822266 7.42398437 22.21394531 7.44921875 23.32226562 C7.47845318 31.18145428 7.47845318 31.18145428 5.23046875 35.02734375 C4.49441406 35.67832031 3.75835937 36.32929688 3 37 C1.99259766 37.91265625 1.99259766 37.91265625 0.96484375 38.84375 C0.29582031 39.3903125 -0.37320312 39.936875 -1.0625 40.5 C-4.0570985 43.08116513 -6.51702459 45.24312897 -8 49 C-7.67147918 51.55936559 -7.67147918 51.55936559 -7 54 C-7.43363148 56.45724507 -8.20805352 58.62416055 -9 61 C-10.12588014 60.04270084 -11.2506715 59.08412105 -12.375 58.125 C-13.00148438 57.59132812 -13.62796875 57.05765625 -14.2734375 56.5078125 C-15.55836651 55.38567993 -16.79371975 54.20628025 -18 53 C-17.46890625 52.56429687 -16.9378125 52.12859375 -16.390625 51.6796875 C-12.12340547 48.08214111 -9.01615092 44.73966573 -6 40 C-2.6 37 -2.6 37 0 37 C0.28875 35.948125 0.5775 34.89625 0.875 33.8125 C2 30 2 30 3.03515625 27.7109375 C4.22692258 24.36241187 4.38693771 21.35736417 4.5625 17.8125 C4.90198366 11.19603267 4.90198366 11.19603267 6 9 C5.34 9 4.68 9 4 9 C3.67 7.02 3.34 5.04 3 3 C2.34 3 1.68 3 1 3 C0.67 3.66 0.34 4.32 0 5 C0 3.35 0 1.7 0 0 Z " fill="#7F6995" transform="translate(296,139)"/>
<path d="M0 0 C6.90071644 3.0652736 12.6360526 9.21531359 15.375 16.24609375 C17.14370663 24.03945734 17.74645346 34.23039438 13.421875 41.25 C10.55346849 44.78034647 7.3563159 47.93695442 4 51 C3.01 50.67 2.02 50.34 1 50 C1.495 47.03 1.495 47.03 2 44 C2.99 44.33 3.98 44.66 5 45 C5.33 44.34 5.66 43.68 6 43 C6.99 43 7.98 43 9 43 C8.98839844 42.34773438 8.97679687 41.69546875 8.96484375 41.0234375 C8.91529006 36.2238086 9.00586249 31.72215315 10 27 C10.99 27 11.98 27 13 27 C13.79356801 25.25328412 13.79356801 25.25328412 14 23 C13.04060332 21.30963442 12.03357147 19.64605826 11 18 C10.27833809 15.68308546 9.59940471 13.35151077 9 11 C7.68 10.67 6.36 10.34 5 10 C5.33 8.68 5.66 7.36 6 6 C5.01 6.33 4.02 6.66 3 7 C2.01 4.69 1.02 2.38 0 0 Z M11 31 C10.67 32.65 10.34 34.3 10 36 C11.32 35.67 12.64 35.34 14 35 C13.67 33.68 13.34 32.36 13 31 C12.34 31 11.68 31 11 31 Z " fill="#A9ABB0" transform="translate(375,213)"/>
<path d="M0 0 C0.66 0.99 1.32 1.98 2 3 C1.125 5.6875 1.125 5.6875 0 8 C-2.475 7.505 -2.475 7.505 -5 7 C-5.28875 7.763125 -5.5775 8.52625 -5.875 9.3125 C-7 12 -7 12 -9 15 C-9 15.99 -9 16.98 -9 18 C-9.9075 18.2475 -10.815 18.495 -11.75 18.75 C-15.07002762 19.76619144 -15.07002762 19.76619144 -17.125 22.1875 C-17.74375 22.785625 -18.3625 23.38375 -19 24 C-21.25 23.75 -21.25 23.75 -23 23 C-23.2475 23.598125 -23.495 24.19625 -23.75 24.8125 C-25.16370012 27.28647521 -26.65055383 28.43370255 -29 30 C-28.67 30.66 -28.34 31.32 -28 32 C-28.33 32.66 -28.66 33.32 -29 34 C-29.66 34 -30.32 34 -31 34 C-31.33 34.66 -31.66 35.32 -32 36 C-33.65 35.67 -35.3 35.34 -37 35 C-31.56256818 28.27475538 -25.30891531 22.73794597 -18.7890625 17.08203125 C-18.11617187 16.49808594 -17.44328125 15.91414062 -16.75 15.3125 C-16.11320312 14.76078125 -15.47640625 14.2090625 -14.8203125 13.640625 C-13.012335 12.01111738 -11.31682327 10.31153468 -9.625 8.5625 C-7 6 -7 6 -5 6 C-5 5.34 -5 4.68 -5 4 C-3.37373596 2.61767557 -1.7074998 1.28062485 0 0 Z " fill="#577396" transform="translate(215,173)"/>
<path d="M0 0 C1.32 0 2.64 0 4 0 C4 0.66 4 1.32 4 2 C4.66 2.33 5.32 2.66 6 3 C5.0479279 4.00596297 4.08812654 5.00461563 3.125 6 C2.59132812 6.556875 2.05765625 7.11375 1.5078125 7.6875 C0 9 0 9 -2 9 C-2 9.66 -2 10.32 -2 11 C-3.22265625 12.234375 -3.22265625 12.234375 -5.0625 13.75 C-9.50188282 17.51504619 -13.7538782 21.45798003 -18 25.4375 C-18.68328369 26.07719727 -19.36656738 26.71689453 -20.07055664 27.37597656 C-21.71467692 28.91628613 -23.35784634 30.45759435 -25 32 C-25.99 31.67 -26.98 31.34 -28 31 C-28 29.02 -28 27.04 -28 25 C-25 24 -25 24 -21 24 C-20.34 21.36 -19.68 18.72 -19 16 C-18.01 16.66 -17.02 17.32 -16 18 C-13.35367713 17.6878236 -13.35367713 17.6878236 -11 17 C-11.33 15.68 -11.66 14.36 -12 13 C-11.01 12.34 -10.02 11.68 -9 11 C-8.67 10.01 -8.34 9.02 -8 8 C-6.68 8.33 -5.36 8.66 -4 9 C-4 8.01 -4 7.02 -4 6 C-3.01 6 -2.02 6 -1 6 C-1.020625 5.195625 -1.04125 4.39125 -1.0625 3.5625 C-1 1 -1 1 0 0 Z " fill="#1D273B" transform="translate(212,168)"/>
<path d="M0 0 C-4.3891872 3.85336434 -8.7865025 7.69190532 -13.26171875 11.4453125 C-15.60181992 13.53825692 -17.78167169 15.77846137 -20 18 C-22.14678879 20.06328931 -24.32007695 22.09681173 -26.5 24.125 C-27.05558594 24.64964844 -27.61117187 25.17429688 -28.18359375 25.71484375 C-31.27637409 28.58931019 -34.25822789 30.97553375 -38 33 C-38 32.01 -38 31.02 -38 30 C-38.66 30 -39.32 30 -40 30 C-40 29.34 -40 28.68 -40 28 C-38.68 28 -37.36 28 -36 28 C-36 27.34 -36 26.68 -36 26 C-35.34 26 -34.68 26 -34 26 C-33.67 25.01 -33.34 24.02 -33 23 C-32.08541016 22.77763672 -32.08541016 22.77763672 -31.15234375 22.55078125 C-28.27670283 21.81490944 -27.403111 20.47869937 -25.5625 18.1875 C-22.93113969 15.02535027 -20.26550497 12.51910383 -17 10 C-16.34 9.01 -15.68 8.02 -15 7 C-13.2675 6.2884375 -13.2675 6.2884375 -11.5 5.5625 C-7.80899185 3.9147285 -7.40697526 3.51743815 -6 0 C-3 -1 -3 -1 0 0 Z " fill="#1C273E" transform="translate(256,137)"/>
<path d="M0 0 C0.66 0 1.32 0 2 0 C2.556875 0.598125 3.11375 1.19625 3.6875 1.8125 C8.87630944 6.72083325 16.31524003 8.07578704 23.01171875 10.03515625 C26 11 26 11 28.00390625 12.08203125 C30.74324769 13.34180667 33.25302591 13.42954517 36.25 13.625 C37.32765625 13.69976562 38.4053125 13.77453125 39.515625 13.8515625 C40.74539063 13.92503906 40.74539063 13.92503906 42 14 C42 14.33 42 14.66 42 15 C39.94921875 15.22786458 37.8984375 15.45572917 35.84765625 15.68359375 C33.98859771 15.81886614 33.98859771 15.81886614 33 17 C30.96994518 17 28.93935573 16.99642412 26.91015625 16.9375 C24.912423 16.86973661 24.912423 16.86973661 23 18 C20.4375 16.875 20.4375 16.875 18 15 C17.1875 12.3125 17.1875 12.3125 17 10 C12.46859347 9.06619039 12.46859347 9.06619039 8 10 C5.64811553 9.40206327 3.31074405 8.74118205 1 8 C1.66 7.01 2.32 6.02 3 5 C2.01 4.34 1.02 3.68 0 3 C0 2.01 0 1.02 0 0 Z " fill="#1C2636" transform="translate(248,326)"/>
<path d="M0 0 C4.51066342 4.16170092 6.62925292 9.05971867 7.39453125 15.12890625 C7.66570328 23.63567312 6.31245575 30.9081429 0.875 37.625 C-1 39 -1 39 -3 39 C-3.2253459 35.69492676 -3.34500438 33.60786486 -1.6875 30.6875 C0 29 0 29 3 28 C2.34 27.67 1.68 27.34 1 27 C1 26.34 1 25.68 1 25 C1.99 24.67 2.98 24.34 4 24 C4 19.71 4 15.42 4 11 C3.34 11 2.68 11 2 11 C1.34 10.34 0.68 9.68 0 9 C-0.66 8.67 -1.32 8.34 -2 8 C-1.34 5.36 -0.68 2.72 0 0 Z " fill="#2A6A80" transform="translate(290,287)"/>
<path d="M0 0 C2.31 0 4.62 0 7 0 C8.125 5.75 8.125 5.75 7 8 C10.86763446 9.87543354 10.86763446 9.87543354 15 9 C14.67 9.99 14.34 10.98 14 12 C14.66 12.66 15.32 13.32 16 14 C16.33 14.99 16.66 15.98 17 17 C18.98 16.67 20.96 16.34 23 16 C23 16.99 23 17.98 23 19 C22.67 19.33 22.34 19.66 22 20 C22.66 20.66 23.32 21.32 24 22 C24 22.66 24 23.32 24 24 C23.01 24.33 22.02 24.66 21 25 C17.31996721 21.43148336 13.95750318 17.68500942 10.6484375 13.76953125 C8.92576263 11.78388311 8.92576263 11.78388311 6 10 C5.67 9.01 5.34 8.02 5 7 C4.154375 6.154375 3.30875 5.30875 2.4375 4.4375 C1.633125 3.633125 0.82875 2.82875 0 2 C0 1.34 0 0.68 0 0 Z " fill="#4F666F" transform="translate(208,280)"/>
<path d="M0 0 C0.598125 0.474375 1.19625 0.94875 1.8125 1.4375 C4.00382924 3.16465744 4.00382924 3.16465744 7 4 C6.125 10.875 6.125 10.875 5 12 C5.03222848 14.03039402 5.06811619 16.06128092 5.16015625 18.08984375 C5 20 5 20 3 22 C2.83312552 24.58354218 2.83312552 24.58354218 3 27 C2.34 27 1.68 27 1 27 C0.67 29.64 0.34 32.28 0 35 C-1.98 34.34 -3.96 33.68 -6 33 C-5.66226562 32.49210937 -5.32453125 31.98421875 -4.9765625 31.4609375 C-4.53054688 30.77257812 -4.08453125 30.08421875 -3.625 29.375 C-3.18414062 28.70210938 -2.74328125 28.02921875 -2.2890625 27.3359375 C0.42670882 22.41463069 1.26069537 18.08946492 1.1875 12.5 C1.18105469 11.4171875 1.17460937 10.334375 1.16796875 9.21875 C1.00395535 6.07579556 0.58178555 3.09044483 0 0 Z " fill="#99ADB6" transform="translate(295,293)"/>
<path d="M0 0 C-1.30886976 2.92700833 -2.66226088 4.87184315 -5.0390625 7.015625 C-5.90917969 7.80839844 -5.90917969 7.80839844 -6.796875 8.6171875 C-7.40015625 9.15601563 -8.0034375 9.69484375 -8.625 10.25 C-9.54152344 11.08144531 -9.54152344 11.08144531 -10.4765625 11.9296875 C-11.97956565 13.2917841 -13.4891468 14.64661601 -15 16 C-15.99 15.67 -16.98 15.34 -18 15 C-19 12 -19 12 -19 9 C-18.21625 8.9175 -17.4325 8.835 -16.625 8.75 C-15.75875 8.5025 -14.8925 8.255 -14 8 C-13.29848848 6.6846659 -12.63474075 5.34882408 -12 4 C-7.93643459 1.18676241 -4.99761868 0 0 0 Z " fill="#777FB2" transform="translate(277,192)"/>
<path d="M0 0 C0.66 0 1.32 0 2 0 C2 1.65 2 3.3 2 5 C1.236875 5.20625 0.47375 5.4125 -0.3125 5.625 C-3.87789164 7.44915386 -4.53557087 9.33892718 -6 13 C-6.165 13.7425 -6.33 14.485 -6.5 15.25 C-7 17 -7 17 -10 19 C-13.1875 19.125 -13.1875 19.125 -16 19 C-16.33 18.01 -16.66 17.02 -17 16 C-12.35344118 11.24222036 -7.61171109 6.68207665 -2.56640625 2.34765625 C-1.68751602 1.59150381 -0.81982149 0.81982149 0 0 Z " fill="#A7A8AC" transform="translate(326,235)"/>
<path d="M0 0 C6.98231561 1.16371927 10.37022306 4.8290803 15 10 C14.34 11.98 13.68 13.96 13 16 C12.34 16 11.68 16 11 16 C11 14.68 11 13.36 11 12 C7.71023192 10.90341064 6.28696233 11.20046862 3 12 C2.45627049 8.94152152 2 6.11227195 2 3 C0.35 3.33 -1.3 3.66 -3 4 C-2.67 3.34 -2.34 2.68 -2 2 C-1.34 2 -0.68 2 0 2 C0 1.34 0 0.68 0 0 Z " fill="#9A7C72" transform="translate(318,156)"/>
<path d="M0 0 C4.16507217 0.54005376 6.54445439 1.83065101 9.8125 4.4375 C10.60269531 5.05496094 11.39289063 5.67242187 12.20703125 6.30859375 C12.79871094 6.86675781 13.39039063 7.42492187 14 8 C14 8.66 14 9.32 14 10 C14.99 10.33 15.98 10.66 17 11 C18.38576923 12.62332967 19.72641268 14.28724465 21 16 C18.03 19.465 18.03 19.465 15 23 C13.11656068 19.23312136 12.77942165 17.97041037 13 14 C13.66 14 14.32 14 15 14 C13.71034824 12.62437146 12.37310707 11.29233607 11 10 C10.34 10 9.68 10 9 10 C7.6875 8.8125 7.6875 8.8125 6 7 C5.13375 6.154375 4.2675 5.30875 3.375 4.4375 C1 2 1 2 0 0 Z " fill="#927B84" transform="translate(299,137)"/>
<path d="M0 0 C3.84223567 1.50944973 5.51995823 3.76843042 8 7 C10.31810772 9.3824996 12.68514566 11.70156265 15.09765625 13.98828125 C15.82855469 14.69339844 16.55945313 15.39851562 17.3125 16.125 C18.35857422 17.11886719 18.35857422 17.11886719 19.42578125 18.1328125 C21 20 21 20 21 23 C17.83884224 21.63016497 17.0072908 21.0109362 15 18 C13.824375 17.3503125 13.824375 17.3503125 12.625 16.6875 C10 15 10 15 8 11.9375 C5.83773038 8.7616665 4.62766979 8.00768605 1 7 C1 6.01 1 5.02 1 4 C0.34 4 -0.32 4 -1 4 C-0.67 2.68 -0.34 1.36 0 0 Z " fill="#9C9B9E" transform="translate(345,181)"/>
<path d="M0 0 C1.65 0.33 3.3 0.66 5 1 C3.88066638 4.35800085 2.97594556 5.1056451 0.3125 7.3125 C-2.37995386 9.58033748 -4.89750106 11.87687298 -7.3125 14.4375 C-10 17 -10 17 -13 17 C-12.44893487 13.6936092 -11.90012129 10.80017874 -10 8 C-9.38253906 7.87238281 -8.76507813 7.74476563 -8.12890625 7.61328125 C-5.40157129 6.82760861 -4.50569425 5.63211781 -2.75 3.4375 C-1.96882813 2.47650391 -1.96882813 2.47650391 -1.171875 1.49609375 C-0.78515625 1.00238281 -0.3984375 0.50867188 0 0 Z " fill="#AEB1B5" transform="translate(346,288)"/>
<path d="M0 0 C5.91429216 4.78176813 11.26504615 10.03030761 16 16 C16 16.66 16 17.32 16 18 C16.66 18 17.32 18 18 18 C19.625 20.5 19.625 20.5 21 23 C20.34 23.66 19.68 24.32 19 25 C19 24.01 19 23.02 19 22 C18.21625 21.938125 17.4325 21.87625 16.625 21.8125 C15.75875 21.544375 14.8925 21.27625 14 21 C13 18.5 13 18.5 12 16 C9.45224694 15.10613836 9.45224694 15.10613836 7 15 C6.67 15.66 6.34 16.32 6 17 C5.67 16.01 5.34 15.02 5 14 C5.33 13.34 5.66 12.68 6 12 C4.91545774 7.46464144 3.3698416 5.1451855 0 2 C0 1.34 0 0.68 0 0 Z " fill="#1D2A3A" transform="translate(227,303)"/>
<path d="M0 0 C2.78211944 0.37596209 4.5879284 0.67318459 6.8125 2.4375 C8 4 8 4 8 6 C8.61875 6.20625 9.2375 6.4125 9.875 6.625 C12.87022113 8.56308426 13.15511762 10.6204705 14 14 C14 14.66 14 15.32 14 16 C12 16 10 16 8 16 C7.875 9.25 7.875 9.25 9 7 C6.36 7.33 3.72 7.66 1 8 C0.67 5.36 0.34 2.72 0 0 Z " fill="#21687F" transform="translate(272,272)"/>
<path d="M0 0 C2.0625 0.4375 2.0625 0.4375 4 1 C0.53526082 5.97114752 -3.9949645 9.64720595 -9 13 C-9.66 13 -10.32 13 -11 13 C-11 11.68 -11 10.36 -11 9 C-10.34 9 -9.68 9 -9 9 C-7.89363605 6.60931266 -7.89363605 6.60931266 -7 4 C-7.33 3.34 -7.66 2.68 -8 2 C-6.2984375 1.7834375 -6.2984375 1.7834375 -4.5625 1.5625 C-1.19222799 1.38828522 -1.19222799 1.38828522 0 0 Z " fill="#6F7CA9" transform="translate(257,207)"/>
<path d="M0 0 C2.375 0.625 2.375 0.625 5 2 C7.22812333 6.9369719 7.36617991 11.62339596 7.375 16.9375 C7.39949219 17.71029297 7.42398437 18.48308594 7.44921875 19.27929688 C7.47820143 24.99371505 6.19131682 28.26348037 3 33 C2 30 2 30 2.90234375 27.76171875 C4.24760707 24.37701708 4.38270116 21.44290634 4.5625 17.8125 C4.90198366 11.19603267 4.90198366 11.19603267 6 9 C5.34 9 4.68 9 4 9 C3.67 7.02 3.34 5.04 3 3 C2.34 3 1.68 3 1 3 C0.67 3.66 0.34 4.32 0 5 C0 3.35 0 1.7 0 0 Z " fill="#9885A5" transform="translate(296,139)"/>
<path d="M0 0 C0.33 0 0.66 0 1 0 C1.02578125 0.75023437 1.0515625 1.50046875 1.078125 2.2734375 C1.57514966 11.24247347 3.97921223 18.06660709 8 26 C5.125 25.75 5.125 25.75 2 25 C-0.0300029 22.022439 -0.2385478 19.56091993 -0.1953125 16.015625 C-0.18886719 15.08105469 -0.18242187 14.14648438 -0.17578125 13.18359375 C-0.15902344 12.21550781 -0.14226562 11.24742187 -0.125 10.25 C-0.11597656 9.26644531 -0.10695312 8.28289062 -0.09765625 7.26953125 C-0.07412785 4.84610593 -0.04125368 2.42317778 0 0 Z " fill="#212A41" transform="translate(168,222)"/>
<path d="M0 0 C1.61363928 3.22727857 0.08456242 5.68923051 -1 9 C-1.97300221 11.33520531 -2.62581394 12.68316407 -4.5546875 14.31640625 C-6.4621499 16.53834218 -6.31280742 17.80542945 -6.1875 20.6875 C-6.16042969 21.49574219 -6.13335937 22.30398437 -6.10546875 23.13671875 C-6.07066406 23.75160156 -6.03585938 24.36648437 -6 25 C-6.66 25.33 -7.32 25.66 -8 26 C-8.62583262 17.12708413 -8.11671339 10.46607757 -3 3 C-2.0311019 1.96983668 -1.04033788 0.95796508 0 0 Z " fill="#546E90" transform="translate(177,208)"/>
<path d="M0 0 C0.66 0.33 1.32 0.66 2 1 C-10.54952077 16.09864217 -10.54952077 16.09864217 -19 18 C-19 17.34 -19 16.68 -19 16 C-14.64705882 12 -14.64705882 12 -11 12 C-11 11.34 -11 10.68 -11 10 C-10.01 10 -9.02 10 -8 10 C-7.67 8.35 -7.34 6.7 -7 5 C-5.68 4.67 -4.36 4.34 -3 4 C-3 3.34 -3 2.68 -3 2 C-2.01 2 -1.02 2 0 2 C0 1.34 0 0.68 0 0 Z " fill="#526B81" transform="translate(227,238)"/>
<path d="M0 0 C5.94 0.99 5.94 0.99 12 2 C12.33 3.98 12.66 5.96 13 8 C12.01 8.33 11.02 8.66 10 9 C9.67 9.66 9.34 10.32 9 11 C7.87278564 9.73113036 6.74831342 8.45982438 5.625 7.1875 C4.99851562 6.47980469 4.37203125 5.77210938 3.7265625 5.04296875 C2 3 2 3 0 0 Z " fill="#1B212F" transform="translate(378,214)"/>
<path d="M0 0 C0 3.54540188 -0.59385272 4.06007364 -2.875 6.625 C-3.40867188 7.23601562 -3.94234375 7.84703125 -4.4921875 8.4765625 C-6 10 -6 10 -8 11 C-7.67 11.66 -7.34 12.32 -7 13 C-7.33 13.66 -7.66 14.32 -8 15 C-8.66 15 -9.32 15 -10 15 C-10.33 15.66 -10.66 16.32 -11 17 C-12.65 16.67 -14.3 16.34 -16 16 C-11.17917294 10.03739811 -5.77505724 5.03320206 0 0 Z " fill="#526C8D" transform="translate(194,192)"/>
<path d="M0 0 C1.98 0.495 1.98 0.495 4 1 C3.67 2.32 3.34 3.64 3 5 C3.66 5 4.32 5 5 5 C5.33 5.66 5.66 6.32 6 7 C8.30965848 8.05352843 10.6429774 9.05719096 13 10 C12.67 12.31 12.34 14.62 12 17 C9.05818063 14.12993232 6.40339871 11.04604062 3.71875 7.9375 C2.19973062 6.22515088 0.63784851 4.59790099 -1 3 C-0.67 2.01 -0.34 1.02 0 0 Z " fill="#A0B1BA" transform="translate(283,276)"/>
<path d="M0 0 C0.33 0.99 0.66 1.98 1 3 C0.195625 3.45375 -0.60875 3.9075 -1.4375 4.375 C-4.08856572 5.74725665 -4.08856572 5.74725665 -5 8 C-5.66 8 -6.32 8 -7 8 C-7 8.66 -7 9.32 -7 10 C-8.75 10.75 -8.75 10.75 -11 11 C-13.25 9.0625 -13.25 9.0625 -15 7 C-14.33613281 6.74605469 -13.67226563 6.49210937 -12.98828125 6.23046875 C-8.42732859 4.45269596 -4.0946559 2.7297706 0 0 Z " fill="#A1AFB8" transform="translate(286,328)"/>
<path d="M0 0 C1.32 0 2.64 0 4 0 C4 0.99 4 1.98 4 3 C3.34 3 2.68 3 2 3 C3.52708963 6.43595166 5.59927045 9.11912454 8 12 C7.34 12 6.68 12 6 12 C5.67 12.66 5.34 13.32 5 14 C4.59007812 13.50628906 4.18015625 13.01257813 3.7578125 12.50390625 C3.21898437 11.86324219 2.68015625 11.22257813 2.125 10.5625 C1.59132813 9.92441406 1.05765625 9.28632813 0.5078125 8.62890625 C-0.9222757 6.89194996 -0.9222757 6.89194996 -3 6 C-2.67 4.68 -2.34 3.36 -2 2 C-1.34 2 -0.68 2 0 2 C0 1.34 0 0.68 0 0 Z " fill="#1E232F" transform="translate(372,200)"/>
<path d="M0 0 C0 0.99 0 1.98 0 3 C1.98 2.34 3.96 1.68 6 1 C6 1.66 6 2.32 6 3 C-0.46008837 4.95021536 -6.2718373 5.22262303 -13 5 C-10.8010559 2.48396678 -9.19278353 1.52440313 -5.9375 0.8125 C-5.24527344 0.65394531 -4.55304688 0.49539063 -3.83984375 0.33203125 C-2 0 -2 0 0 0 Z " fill="#1F667C" transform="translate(277,328)"/>
<path d="M0 0 C1.32 0.33 2.64 0.66 4 1 C2.44997253 4.88397689 -0.00476621 7.02979619 -3.125 9.75 C-4.49011719 10.94882812 -4.49011719 10.94882812 -5.8828125 12.171875 C-6.58148438 12.77515625 -7.28015625 13.3784375 -8 14 C-8.66 13.67 -9.32 13.34 -10 13 C-5.05 6.565 -5.05 6.565 0 0 Z " fill="#A9ACB3" transform="translate(372,264)"/>
<path d="M0 0 C1.12894876 0.93274109 2.25300876 1.87140122 3.375 2.8125 C4.00148438 3.33457031 4.62796875 3.85664063 5.2734375 4.39453125 C7 6 7 6 9 9 C8.125 11.6875 8.125 11.6875 7 14 C6.34 14 5.68 14 5 14 C5 12.68 5 11.36 5 10 C4.34 10 3.68 10 3 10 C2.814375 9.071875 2.814375 9.071875 2.625 8.125 C2.12802644 5.80879168 2.12802644 5.80879168 0 4 C0 2.68 0 1.36 0 0 Z " fill="#9A8984" transform="translate(324,158)"/>
<path d="M0 0 C0.763125 0.309375 1.52625 0.61875 2.3125 0.9375 C6.39340374 2.55088055 9.81969633 3.23374058 14.1875 3.5625 C15.27417969 3.64628906 16.36085938 3.73007812 17.48046875 3.81640625 C18.72763672 3.90728516 18.72763672 3.90728516 20 4 C20 4.33 20 4.66 20 5 C17.94921875 5.22786458 15.8984375 5.45572917 13.84765625 5.68359375 C11.98859771 5.81886614 11.98859771 5.81886614 11 7 C9.47480724 6.91062197 7.95318071 6.75462854 6.4375 6.5625 C5.19806641 6.40974609 5.19806641 6.40974609 3.93359375 6.25390625 C3.29550781 6.17011719 2.65742188 6.08632813 2 6 C1.34 4.02 0.68 2.04 0 0 Z " fill="#323540" transform="translate(270,336)"/>
<path d="M0 0 C0.99 0 1.98 0 3 0 C3 0.66 3 1.32 3 2 C3.598125 2.268125 4.19625 2.53625 4.8125 2.8125 C6.97224808 3.98493467 8.35790256 5.19369282 10 7 C9.34 8.32 8.68 9.64 8 11 C4.38061905 8.35883012 2.01293477 6.02586954 0 2 C0 1.34 0 0.68 0 0 Z " fill="#9DA0A5" transform="translate(366,204)"/>
<path d="M0 0 C6.17195408 0.27430907 10.17148355 1.03814035 15 5 C15 5.33 15 5.66 15 6 C10.46411165 6.10079752 7.29055172 5.43018391 3 4 C2.67 3.67 2.34 3.34 2 3 C0.67405895 2.63837971 -0.65938457 2.30271961 -2 2 C-1.34 2 -0.68 2 0 2 C0 1.34 0 0.68 0 0 Z " fill="#7F7EB0" transform="translate(279,130)"/>
<path d="M0 0 C-0.48901099 6.35714286 -0.48901099 6.35714286 -2.9375 9.4375 C-5 11 -5 11 -7 11 C-7.2253459 7.69492676 -7.34500438 5.60786486 -5.6875 2.6875 C-3.95905147 0.95905147 -2.58535967 0 0 0 Z " fill="#20667E" transform="translate(294,315)"/>
<path d="M0 0 C2.375 0.6875 2.375 0.6875 5 2 C6.3125 4.625 6.3125 4.625 7 7 C6.13375 6.608125 5.2675 6.21625 4.375 5.8125 C0.11536801 4.78703304 -1.32002641 5.82547015 -5 8 C-5.66 8 -6.32 8 -7 8 C-7 7.34 -7 6.68 -7 6 C-5.46875 4.4921875 -5.46875 4.4921875 -3.5 2.875 C-2.8503125 2.33617187 -2.200625 1.79734375 -1.53125 1.2421875 C-1.0259375 0.83226562 -0.520625 0.42234375 0 0 Z " fill="#456673" transform="translate(236,231)"/>
<path d="M0 0 C7.42857143 -0.14285714 7.42857143 -0.14285714 11 1 C10.42805835 4.31726155 9.42999536 5.72635823 7 8 C5.83035398 6.8572081 4.66435444 5.71068285 3.5 4.5625 C2.8503125 3.92441406 2.200625 3.28632813 1.53125 2.62890625 C0 1 0 1 0 0 Z " fill="#1F2432" transform="translate(357,192)"/>
<path d="M0 0 C1.5778125 0.495 1.5778125 0.495 3.1875 1 C6.38873357 1.83966782 8.7411008 2.19750904 12 2 C11.67 4.31 11.34 6.62 11 9 C8 9 8 9 5.95703125 7.28515625 C5.24933594 6.55167969 4.54164063 5.81820312 3.8125 5.0625 C3.09707031 4.33160156 2.38164062 3.60070312 1.64453125 2.84765625 C0 1 0 1 0 0 Z M8 3 C8 3.66 8 4.32 8 5 C8.66 5 9.32 5 10 5 C10 4.34 10 3.68 10 3 C9.34 3 8.68 3 8 3 Z " fill="#20222E" transform="translate(340,174)"/>
<path d="M0 0 C1.32 0.66 2.64 1.32 4 2 C4 2.66 4 3.32 4 4 C4.99 3.67 5.98 3.34 7 3 C7 3.66 7 4.32 7 5 C7.99 5.33 8.98 5.66 10 6 C7 7 7 7 5 7 C4.67 7.66 4.34 8.32 4 9 C3.67 8.34 3.34 7.68 3 7 C2.01 7.66 1.02 8.32 0 9 C-0.87890625 2.84765625 -0.87890625 2.84765625 -1 1 C-0.67 0.67 -0.34 0.34 0 0 Z " fill="#916E77" transform="translate(304,143)"/>
<path d="M0 0 C3.63 0 7.26 0 11 0 C10 2 10 2 7.89453125 3.1171875 C4.37138761 4.19172254 1.36497807 4.19373791 -2.3125 4.125 C-3.56675781 4.10695313 -4.82101562 4.08890625 -6.11328125 4.0703125 C-7.06589844 4.04710937 -8.01851563 4.02390625 -9 4 C-9 3.67 -9 3.34 -9 3 C-5.92382812 2.70703125 -5.92382812 2.70703125 -2.84765625 2.4140625 C-2.23792969 2.27742188 -1.62820313 2.14078125 -1 2 C-0.67 1.34 -0.34 0.68 0 0 Z " fill="#BBBFC7" transform="translate(289,336)"/>
<path d="M0 0 C2.31 0.33 4.62 0.66 7 1 C7 3.31 7 5.62 7 8 C6.01 8.495 6.01 8.495 5 9 C2.5 6.75 2.5 6.75 0 4 C0 2.68 0 1.36 0 0 Z " fill="#947878" transform="translate(313,224)"/>
<path d="M0 0 C-1.55500981 3.81684226 -4.03595495 6.19195732 -7 9 C-7.99 8.67 -8.98 8.34 -10 8 C-9.67 6.02 -9.34 4.04 -9 2 C-8.01 2.33 -7.02 2.66 -6 3 C-5.67 2.34 -5.34 1.68 -5 1 C-2 0 -2 0 0 0 Z " fill="#ABAFB4" transform="translate(386,255)"/>
<path d="M0 0 C1.0625 1.875 1.0625 1.875 2 4 C1.67 4.66 1.34 5.32 1 6 C0.030625 6.12375 -0.93875 6.2475 -1.9375 6.375 C-3.4534375 6.684375 -3.4534375 6.684375 -5 7 C-6.24174796 8.9001177 -6.24174796 8.9001177 -7 11 C-7.99 11.66 -8.98 12.32 -10 13 C-10.33 12.01 -10.66 11.02 -11 10 C-10.45730469 9.52949219 -9.91460937 9.05898438 -9.35546875 8.57421875 C-8.64003906 7.95160156 -7.92460937 7.32898438 -7.1875 6.6875 C-6.47980469 6.07261719 -5.77210938 5.45773437 -5.04296875 4.82421875 C-3.29863261 3.26665665 -1.63221959 1.67341125 0 0 Z " fill="#1C1F2D" transform="translate(334,306)"/>
<path d="M0 0 C2.523338 0.93264087 3.64433177 2.05388445 5.39453125 4.08203125 C5.92691406 4.67628906 6.45929688 5.27054688 7.0078125 5.8828125 C8.08203125 7.76953125 8.08203125 7.76953125 7.75 10 C7.52957031 10.58394531 7.30914062 11.16789063 7.08203125 11.76953125 C3.86429168 8.63646904 1.10895959 5.82338793 -0.91796875 1.76953125 C-1.90796875 1.43953125 -2.89796875 1.10953125 -3.91796875 0.76953125 C-1.91796875 -0.23046875 -1.91796875 -0.23046875 0 0 Z " fill="#416A74" transform="translate(244.91796875,239.23046875)"/>
<path d="M0 0 C1.134375 0.020625 2.26875 0.04125 3.4375 0.0625 C3.4375 3.0325 3.4375 6.0025 3.4375 9.0625 C0.08751479 7.94583826 -0.35590222 7.31555075 -2.25 4.5 C-2.68699219 3.85933594 -3.12398438 3.21867188 -3.57421875 2.55859375 C-4.06341797 1.81802734 -4.06341797 1.81802734 -4.5625 1.0625 C-3.5625 0.0625 -3.5625 0.0625 0 0 Z " fill="#20212C" transform="translate(332.5625,159.9375)"/>
<path d="M0 0 C0.66 0.33 1.32 0.66 2 1 C-2.62 5.62 -7.24 10.24 -12 15 C-12 11.89448334 -11.4606285 10.64738916 -10 8 C-9.34 8 -8.68 8 -8 8 C-7.67 7.01 -7.34 6.02 -7 5 C-5.66666667 4.66666667 -4.33333333 4.33333333 -3 4 C-2.67 3.01 -2.34 2.02 -2 1 C-1.34 0.67 -0.68 0.34 0 0 Z " fill="#1B1E2B" transform="translate(144,80)"/>
<path d="M0 0 C-1.28548409 1.33929505 -2.57858155 2.67128643 -3.875 4 C-4.59429687 4.7425 -5.31359375 5.485 -6.0546875 6.25 C-8 8 -8 8 -10 8 C-10 5.36 -10 2.72 -10 0 C-9.01 0 -8.02 0 -7 0 C-5.7315625 -0.2784375 -5.7315625 -0.2784375 -4.4375 -0.5625 C-2 -1 -2 -1 0 0 Z " fill="#AEB1B7" transform="translate(362,280)"/>
<path d="M0 0 C3 0 3 0 7 1 C5.02 3.97 3.04 6.94 1 10 C-1.39223697 7.60776303 -1.6758631 6.32240324 -2 3 C-1.34 2.01 -0.68 1.02 0 0 Z " fill="#20273B" transform="translate(170,208)"/>
<path d="M0 0 C0.66 0.99 1.32 1.98 2 3 C-1.42066436 8.05663427 -5.91002391 10.83507897 -11 14 C-11.66 13.67 -12.32 13.34 -13 13 C-7.25 8 -7.25 8 -5 8 C-4.731875 7.4225 -4.46375 6.845 -4.1875 6.25 C-2.98280141 3.9674132 -1.59201885 2.0262058 0 0 Z " fill="#8C7AA0" transform="translate(301,168)"/>
<path d="M0 0 C1.32 0 2.64 0 4 0 C5.75 2 5.75 2 7 4 C5.68 4.99 4.36 5.98 3 7 C3 6.34 3 5.68 3 5 C1.02 5 -0.96 5 -3 5 C-3 4.01 -3 3.02 -3 2 C-2.01 2 -1.02 2 0 2 C0 1.34 0 0.68 0 0 Z " fill="#ABACAE" transform="translate(307,322)"/>
<path d="M0 0 C1.32 0.33 2.64 0.66 4 1 C3.125 7.875 3.125 7.875 2 9 C1.92851801 10.35243917 1.91600546 11.70834367 1.9375 13.0625 C1.958125 14.361875 1.97875 15.66125 2 17 C1.34 17.33 0.68 17.66 0 18 C0 12.06 0 6.12 0 0 Z " fill="#A9B0B1" transform="translate(298,296)"/>
<path d="M0 0 C-2.475 3.465 -2.475 3.465 -5 7 C-6.9375 6.1875 -6.9375 6.1875 -9 5 C-9.33 4.01 -9.66 3.02 -10 2 C-3.375 -1.125 -3.375 -1.125 0 0 Z " fill="#232733" transform="translate(304,337)"/>
<path d="M0 0 C0.99 0 1.98 0 3 0 C3 0.66 3 1.32 3 2 C3.99 2 4.98 2 6 2 C6.33 1.34 6.66 0.68 7 0 C7.66 0 8.32 0 9 0 C10.2077558 3.62326739 9.54311128 4.64146369 8 8 C6.85073734 7.04578192 5.70569459 6.08647955 4.5625 5.125 C3.92441406 4.59132812 3.28632813 4.05765625 2.62890625 3.5078125 C1 2 1 2 0 0 Z " fill="#846D82" transform="translate(294,208)"/>
<path d="M0 0 C1.34061543 0.30271961 2.67405895 0.63837971 4 1 C4.99 0.67 5.98 0.34 7 0 C6.40138258 2.35171131 5.73075648 4.6859378 5 7 C4.01 7.495 4.01 7.495 3 8 C1.35 6.02 -0.3 4.04 -2 2 C-1.34 1.34 -0.68 0.68 0 0 Z " fill="#1E2430" transform="translate(353,184)"/>
<path d="M0 0 C0.433125 0.495 0.86625 0.99 1.3125 1.5 C2.99740483 3.33218192 2.99740483 3.33218192 6 3 C4.02 5.31 2.04 7.62 0 10 C-1.88343932 6.23312136 -2.22057835 4.97041037 -2 1 C-1.34 0.67 -0.68 0.34 0 0 Z " fill="#937173" transform="translate(314,150)"/>
<path d="M0 0 C2.2477975 2.05233685 3.0022242 3.00667261 4 6 C4.068991 8.06145107 4.08467727 10.12501401 4.0625 12.1875 C4.05347656 13.27417969 4.04445313 14.36085937 4.03515625 15.48046875 C4.02355469 16.31191406 4.01195312 17.14335937 4 18 C2.40706262 14.96828047 1.67074941 12.35374706 1 9 C0.62875 8.34 0.2575 7.68 -0.125 7 C-1.28427778 4.35022223 -0.75850744 2.73062678 0 0 Z " fill="#B2B3B9" transform="translate(387,226)"/>
<path d="M0 0 C3.875 0.875 3.875 0.875 5 2 C5.33 1.34 5.66 0.68 6 0 C6.66 0 7.32 0 8 0 C8 0.66 8 1.32 8 2 C8.66 2.33 9.32 2.66 10 3 C9.34 3 8.68 3 8 3 C8.33 4.32 8.66 5.64 9 7 C6 7 6 7 4.39453125 5.46875 C3.87246094 4.8190625 3.35039062 4.169375 2.8125 3.5 C2.28269531 2.8503125 1.75289063 2.200625 1.20703125 1.53125 C0.80871094 1.0259375 0.41039062 0.520625 0 0 Z " fill="#8D727D" transform="translate(302,216)"/>
<path d="M0 0 C0 1.65 0 3.3 0 5 C-1.65 4.67 -3.3 4.34 -5 4 C-5.33 4.99 -5.66 5.98 -6 7 C-6.66 7 -7.32 7 -8 7 C-8 7.99 -8 8.98 -8 10 C-8.99 9.67 -9.98 9.34 -11 9 C-9.73965413 7.49117739 -8.46636351 5.99315956 -7.1875 4.5 C-6.47980469 3.6646875 -5.77210938 2.829375 -5.04296875 1.96875 C-3 0 -3 0 0 0 Z " fill="#191E39" transform="translate(280,193)"/>
<path d="M0 0 C-0.5653911 3.50695293 -1.68722726 5.02732613 -4.375 7.3125 C-4.98085938 7.84488281 -5.58671875 8.37726563 -6.2109375 8.92578125 C-6.80132812 9.28027344 -7.39171875 9.63476562 -8 10 C-8.99 9.67 -9.98 9.34 -11 9 C-9.54782324 7.49403892 -8.08807139 5.99537896 -6.625 4.5 C-5.40683594 3.24703125 -5.40683594 3.24703125 -4.1640625 1.96875 C-2 0 -2 0 0 0 Z " fill="#AEB3BD" transform="translate(310,252)"/>
<path d="M0 0 C2.97 0 5.94 0 9 0 C8 2 7 4 6 6 C6.66 6.33 7.32 6.66 8 7 C7.01 7 6.02 7 5 7 C3.04456468 4.84075874 1.61151878 2.43905546 0 0 Z " fill="#806985" transform="translate(287,200)"/>
<path d="M0 0 C2.97 0 5.94 0 9 0 C8.67 0.99 8.34 1.98 8 3 C2.72 3 -2.56 3 -8 3 C-8 2.67 -8 2.34 -8 2 C-5.36 2 -2.72 2 0 2 C0 1.34 0 0.68 0 0 Z " fill="#212436" transform="translate(176,73)"/>
<path d="M0 0 C0.66 0 1.32 0 2 0 C0.25 3.875 0.25 3.875 -2 5 C-1.125 1.125 -1.125 1.125 0 0 Z M-3 5 C-2.67 6.32 -2.34 7.64 -2 9 C-3.98 9.99 -3.98 9.99 -6 11 C-6.66 10.34 -7.32 9.68 -8 9 C-8 8.34 -8 7.68 -8 7 C-6.35 6.34 -4.7 5.68 -3 5 Z " fill="#A9B2B6" transform="translate(289,326)"/>
<path d="M0 0 C0.99 0.33 1.98 0.66 3 1 C5.14255793 0.61067144 5.14255793 0.61067144 7 0 C5.60667426 3.36720387 4.0210714 4.9859524 1 7 C-2 3.25 -2 3.25 -2 1 C-1.34 0.67 -0.68 0.34 0 0 Z " fill="#8E7B7B" transform="translate(321,232)"/>
<path d="M0 0 C3.13010458 1.39192704 5.32336692 3.02642226 7.75 5.4375 C8.67039062 6.33275391 8.67039062 6.33275391 9.609375 7.24609375 C11 9 11 9 11 12 C6.07451056 10.17574465 3.16430344 6.1068348 0.6875 1.625 C0.460625 1.08875 0.23375 0.5525 0 0 Z " fill="#A6A8AE" transform="translate(355,192)"/>
<path d="M0 0 C0.89589844 0.00322266 1.79179687 0.00644531 2.71484375 0.00976562 C4.12056641 0.02233398 4.12056641 0.02233398 5.5546875 0.03515625 C6.49957031 0.03966797 7.44445312 0.04417969 8.41796875 0.04882812 C10.75527137 0.06063268 13.09244811 0.07709866 15.4296875 0.09765625 C15.7596875 0.75765625 16.0896875 1.41765625 16.4296875 2.09765625 C15.34429687 2.07445312 14.25890625 2.05125 13.140625 2.02734375 C11.69531943 2.00857355 10.25000635 1.99037469 8.8046875 1.97265625 C7.73541016 1.94751953 7.73541016 1.94751953 6.64453125 1.921875 C2.1684711 1.88081023 -1.34980528 2.40679058 -5.5703125 4.09765625 C-5.9003125 3.10765625 -6.2303125 2.11765625 -6.5703125 1.09765625 C-4.16971433 -0.10264283 -2.67670601 -0.01694118 0 0 Z " fill="#262B46" transform="translate(267.5703125,127.90234375)"/>
<path d="M0 0 C0.5775 0.20625 1.155 0.4125 1.75 0.625 C1.42 2.935 1.09 5.245 0.75 7.625 C-1.56 5.645 -3.87 3.665 -6.25 1.625 C-2.25 -0.375 -2.25 -0.375 0 0 Z " fill="#20232B" transform="translate(326.25,152.375)"/>
<path d="M0 0 C1.66666667 0 3.33333333 0 5 0 C5.33 2.64 5.66 5.28 6 8 C5.01 7.01 4.02 6.02 3 5 C1.68 6.32 0.36 7.64 -1 9 C-0.67 6.03 -0.34 3.06 0 0 Z " fill="#A2A4A8" transform="translate(385,240)"/>
<path d="M0 0 C0.33 0.66 0.66 1.32 1 2 C2.33076989 2.34342449 3.66431979 2.67619874 5 3 C5.66 3.66 6.32 4.32 7 5 C6.67 5.99 6.34 6.98 6 8 C5.67 7.67 5.34 7.34 5 7 C4.67 7.66 4.34 8.32 4 9 C3.34 9 2.68 9 2 9 C1.34 6.03 0.68 3.06 0 0 Z " fill="#306C7F" transform="translate(263,260)"/>
<path d="M0 0 C2 0 4 0 6 0 C4.55922954 3.36179774 2.75249979 5.59156268 0 8 C-0.66 8 -1.32 8 -2 8 C-1.34 5.36 -0.68 2.72 0 0 Z " fill="#99847C" transform="translate(330,224)"/>
<path d="M0 0 C0.99 0.495 0.99 0.495 2 1 C1.01 1.495 1.01 1.495 0 2 C0 1.34 0 0.68 0 0 Z M0 3 C-0.886875 3.721875 -1.77375 4.44375 -2.6875 5.1875 C-5.63741207 7.63992096 -8.32793794 10.24934788 -11 13 C-11 9.34091927 -9.72672325 8.0498024 -7.37109375 5.3671875 C-4.95689531 2.95986712 -3.21180847 1.39409577 0 3 Z " fill="#A7A29E" transform="translate(342,220)"/>
<path d="M0 0 C0 0.99 0 1.98 0 3 C1.43750191 4.68798827 1.43750191 4.68798827 3 6 C-2.625 8.125 -2.625 8.125 -6 7 C-4.02 4.69 -2.04 2.38 0 0 Z " fill="#5C7298" transform="translate(229,160)"/>
<path d="M0 0 C1.14926266 0.95421808 2.29430541 1.91352045 3.4375 2.875 C4.07558594 3.40867188 4.71367187 3.94234375 5.37109375 4.4921875 C7 6 7 6 8 8 C5.69 7.67 3.38 7.34 1 7 C0.67 4.69 0.34 2.38 0 0 Z " fill="#1B263C" transform="translate(176,248)"/>
<path d="M0 0 C0.33 0.66 0.66 1.32 1 2 C2.65 1.34 4.3 0.68 6 0 C5.04578192 1.14926266 4.08647955 2.29430541 3.125 3.4375 C2.59132812 4.07558594 2.05765625 4.71367187 1.5078125 5.37109375 C0 7 0 7 -2 8 C-2.6875 5.6875 -2.6875 5.6875 -3 3 C-1.5625 1.1875 -1.5625 1.1875 0 0 Z " fill="#1B2539" transform="translate(179,200)"/>
<path d="M0 0 C0.33 0.99 0.66 1.98 1 3 C0.195625 3.45375 -0.60875 3.9075 -1.4375 4.375 C-4.08856572 5.74725665 -4.08856572 5.74725665 -5 8 C-8 7 -8 7 -10 5 C-8.27473958 4.28385417 -6.54947917 3.56770833 -4.82421875 2.8515625 C-2.73466068 1.93193308 -2.73466068 1.93193308 0 0 Z " fill="#8FA6AE" transform="translate(286,328)"/>
<path d="M0 0 C-0.3125 1.875 -0.3125 1.875 -1 4 C-4 6 -4 6 -6.1875 5.625 C-6.785625 5.41875 -7.38375 5.2125 -8 5 C-3.375 0 -3.375 0 0 0 Z " fill="#272C39" transform="translate(372,272)"/>
<path d="M0 0 C0.66 0 1.32 0 2 0 C3.02611949 1.65071396 4.02308143 3.31970006 5 5 C6.58245275 6.75149165 6.58245275 6.75149165 8 8 C5.69 8 3.38 8 1 8 C0.67 5.36 0.34 2.72 0 0 Z " fill="#23303B" transform="translate(206,280)"/>
<path d="M0 0 C0.33 1.98 0.66 3.96 1 6 C-1 6 -3 6 -5 6 C-4.625 3.5625 -4.625 3.5625 -4 1 C-2 0 -2 0 0 0 Z " fill="#136882" transform="translate(285,282)"/>
<path d="M0 0 C1.32 0 2.64 0 4 0 C4 2.31 4 4.62 4 7 C0.83884224 5.63016497 0.0072908 5.0109362 -2 2 C-1.34 1.34 -0.68 0.68 0 0 Z " fill="#566974" transform="translate(204,273)"/>
<path d="M0 0 C0.66 0.66 1.32 1.32 2 2 C0.07423885 4.43929746 -1.80090595 6.80090595 -4 9 C-4.99 8.01 -5.98 7.02 -7 6 C-4.69 4.02 -2.38 2.04 0 0 Z " fill="#726290" transform="translate(285,186)"/>
<path d="M0 0 C2.375 0.5 2.375 0.5 5 2 C6.08241903 4.66525288 6.49272107 7.1407915 7 10 C6.01 9.67 5.02 9.34 4 9 C3.67 7.02 3.34 5.04 3 3 C2.34 3 1.68 3 1 3 C0.67 3.66 0.34 4.32 0 5 C0 3.35 0 1.7 0 0 Z " fill="#937D99" transform="translate(296,139)"/>
<path d="M0 0 C5.03985731 0.44469329 7.37634988 2.71343362 11 6 C7.24413583 6 5.23349228 4.85753812 2 3 C1.34 2.01 0.68 1.02 0 0 Z " fill="#968192" transform="translate(299,137)"/>
<path d="M0 0 C1.32 0 2.64 0 4 0 C4 0.99 4 1.98 4 3 C2.68 3 1.36 3 0 3 C-0.33 3.99 -0.66 4.98 -1 6 C-1.99 6 -2.98 6 -4 6 C-3.34 4.68 -2.68 3.36 -2 2 C-1.34 2 -0.68 2 0 2 C0 1.34 0 0.68 0 0 Z " fill="#747BB2" transform="translate(272,129)"/>
<path d="M0 0 C0 0.66 0 1.32 0 2 C-6 6 -6 6 -8 6 C-8 4.68 -8 3.36 -8 2 C-2.25 0 -2.25 0 0 0 Z " fill="#1E1F2D" transform="translate(160,74)"/>
<path d="M0 0 C0.928125 0.2784375 0.928125 0.2784375 1.875 0.5625 C4.04160178 1.23686176 4.04160178 1.23686176 6 0 C5.67 2.31 5.34 4.62 5 7 C2.5 5.1875 2.5 5.1875 0 3 C0 2.01 0 1.02 0 0 Z " fill="#576E7B" transform="translate(194,264)"/>
<path d="M0 0 C2.97 0.495 2.97 0.495 6 1 C6.33 2.98 6.66 4.96 7 7 C5.83040013 6.02433888 4.66438823 5.044375 3.5 4.0625 C2.8503125 3.51722656 2.200625 2.97195312 1.53125 2.41015625 C1.0259375 1.94480469 0.520625 1.47945312 0 1 C0 0.67 0 0.34 0 0 Z " fill="#59718F" transform="translate(177,248)"/>
<path d="M0 0 C0.99 0 1.98 0 3 0 C3.66 0.66 4.32 1.32 5 2 C4.34 3.65 3.68 5.3 3 7 C2.34 7 1.68 7 1 7 C1 5.68 1 4.36 1 3 C0.34 3 -0.32 3 -1 3 C-0.67 2.01 -0.34 1.02 0 0 Z " fill="#9B8377" transform="translate(328,165)"/>
<path d="M0 0 C0.92232422 0.10828125 0.92232422 0.10828125 1.86328125 0.21875 C3.07564453 0.35796875 3.07564453 0.35796875 4.3125 0.5 C5.51326172 0.63921875 5.51326172 0.63921875 6.73828125 0.78125 C9.11896555 1.04813463 9.11896555 1.04813463 12 1 C12.33 2.32 12.66 3.64 13 5 C11.01853549 4.55170486 9.03985789 4.09107502 7.0625 3.625 C5.96035156 3.36976563 4.85820312 3.11453125 3.72265625 2.8515625 C2.82417969 2.57054687 1.92570312 2.28953125 1 2 C0.67 1.34 0.34 0.68 0 0 Z " fill="#2D273B" transform="translate(291,133)"/>
<path d="M0 0 C1.32 0 2.64 0 4 0 C3.6875 1.875 3.6875 1.875 3 4 C2.01 4.66 1.02 5.32 0 6 C-0.38218767 4.34385343 -0.71395102 2.67542976 -1 1 C-0.67 0.67 -0.34 0.34 0 0 Z " fill="#1A1E2A" transform="translate(364,278)"/>
<path d="M0 0 C0.99 0 1.98 0 3 0 C1.50902342 3.7952131 -0.75700849 5.61042731 -4 8 C-4 4.0521912 -2.66275435 2.81491174 0 0 Z " fill="#6D7FA2" transform="translate(242,221)"/>
<path d="M0 0 C2 1.375 2 1.375 4 3 C4 3.66 4 4.32 4 5 C3.34 5 2.68 5 2 5 C1.67 5.66 1.34 6.32 1 7 C0.01 5.68 -0.98 4.36 -2 3 C-1.34 2.01 -0.68 1.02 0 0 Z " fill="#212430" transform="translate(308,136)"/>
<path d="M0 0 C0.99 0.33 1.98 0.66 3 1 C3 1.99 3 2.98 3 4 C3.66 4.33 4.32 4.66 5 5 C2.525 6.485 2.525 6.485 0 8 C0 5.36 0 2.72 0 0 Z " fill="#222940" transform="translate(256,128)"/>
<path d="M0 0 C2 2 2 2 3 4 C3.66 3.67 4.32 3.34 5 3 C5.66 3.66 6.32 4.32 7 5 C5.02 5.99 5.02 5.99 3 7 C1.68 5.68 0.36 4.36 -1 3 C-0.67 2.01 -0.34 1.02 0 0 Z " fill="#AFAFB0" transform="translate(297,330)"/>
<path d="M0 0 C0.66 0.66 1.32 1.32 2 2 C1.67 2.99 1.34 3.98 1 5 C-0.32303717 5.3721042 -1.65737935 5.70630173 -3 6 C-3.33 6.66 -3.66 7.32 -4 8 C-4.99 7.67 -5.98 7.34 -7 7 C-4.66666667 4.66666667 -2.33333333 2.33333333 0 0 Z " fill="#1B1D29" transform="translate(316,323)"/>
<path d="M0 0 C1.65 0 3.3 0 5 0 C5.66 1.98 6.32 3.96 7 6 C5.1875 5.8125 5.1875 5.8125 3 5 C1.25 2.4375 1.25 2.4375 0 0 Z " fill="#567080" transform="translate(185,256)"/>
<path d="M0 0 C2.31 0.66 4.62 1.32 7 2 C7 3.65 7 5.3 7 7 C5.83040013 6.02433888 4.66438823 5.044375 3.5 4.0625 C2.8503125 3.51722656 2.200625 2.97195312 1.53125 2.41015625 C1.0259375 1.94480469 0.520625 1.47945312 0 1 C0 0.67 0 0.34 0 0 Z " fill="#262A34" transform="translate(378,214)"/>
<path d="M0 0 C0.66 0.99 1.32 1.98 2 3 C1.125 5.6875 1.125 5.6875 0 8 C-1.32 7.67 -2.64 7.34 -4 7 C-4 6.34 -4 5.68 -4 5 C-3.34 5 -2.68 5 -2 5 C-1.7834375 4.0409375 -1.7834375 4.0409375 -1.5625 3.0625 C-1 1 -1 1 0 0 Z " fill="#5B7397" transform="translate(215,173)"/>
<path d="M0 0 C0.598125 0.309375 1.19625 0.61875 1.8125 0.9375 C4.08956772 2.10209704 4.08956772 2.10209704 7 3 C4.525 4.485 4.525 4.485 2 6 C1.01 4.35 0.02 2.7 -1 1 C-0.67 0.67 -0.34 0.34 0 0 Z " fill="#21242C" transform="translate(337,168)"/>
<path d="M0 0 C0.66 0.33 1.32 0.66 2 1 C1.38461538 6.53846154 1.38461538 6.53846154 -0.5625 8.875 C-1.036875 9.24625 -1.51125 9.6175 -2 10 C-2.17942163 6.05272412 -2.09350689 3.4019487 0 0 Z " fill="#136684" transform="translate(289,316)"/>
<path d="M0 0 C0.33 0 0.66 0 1 0 C1.33 2.64 1.66 5.28 2 8 C0.35 8.66 -1.3 9.32 -3 10 C-2.01 6.7 -1.02 3.4 0 0 Z " fill="#8EA6B1" transform="translate(296,312)"/>
<path d="M0 0 C1.32 0.66 2.64 1.32 4 2 C3.34 3.32 2.68 4.64 2 6 C0.68 5.34 -0.64 4.68 -2 4 C-1.34 2.68 -0.68 1.36 0 0 Z " fill="#ACAFB5" transform="translate(329,304)"/>
<path d="M0 0 C1.4540625 0.0309375 1.4540625 0.0309375 2.9375 0.0625 C1.2875 1.7125 -0.3625 3.3625 -2.0625 5.0625 C-2.7225 3.7425 -3.3825 2.4225 -4.0625 1.0625 C-3.0625 0.0625 -3.0625 0.0625 0 0 Z " fill="#16212D" transform="translate(284.0625,271.9375)"/>
<path d="M0 0 C0.99 0.33 1.98 0.66 3 1 C2.1875 2.9375 2.1875 2.9375 1 5 C0.01 5.33 -0.98 5.66 -2 6 C-1.125 1.125 -1.125 1.125 0 0 Z " fill="#161F2B" transform="translate(290,264)"/>
<path d="M0 0 C2.64 0.66 5.28 1.32 8 2 C8 2.66 8 3.32 8 4 C5.6875 4.6875 5.6875 4.6875 3 5 C1.1875 3.6875 1.1875 3.6875 0 2 C0 1.34 0 0.68 0 0 Z " fill="#97918B" transform="translate(344,187)"/>
<path d="M0 0 C0 3 0 3 -1.8125 5.1875 C-4 7 -4 7 -7 7 C-7 6.34 -7 5.68 -7 5 C-6.34 5 -5.68 5 -5 5 C-5 4.34 -5 3.68 -5 3 C-2.5 1.375 -2.5 1.375 0 0 Z " fill="#BCBEC6" transform="translate(309,327)"/>
<path d="M0 0 C2.475 0.495 2.475 0.495 5 1 C5.33 1.99 5.66 2.98 6 4 C5.34 4.66 4.68 5.32 4 6 C2.62437146 4.71034824 1.29233607 3.37310707 0 2 C0 1.34 0 0.68 0 0 Z " fill="#3E6672" transform="translate(237,312)"/>
<path d="M0 0 C2.62187494 1.04874998 3.79371361 1.64931313 5.25 4.125 C5.4975 4.74375 5.745 5.3625 6 6 C5.01 6.33 4.02 6.66 3 7 C2.34 6.67 1.68 6.34 1 6 C1 4.68 1 3.36 1 2 C0.67 1.34 0.34 0.68 0 0 Z " fill="#171B29" transform="translate(377,208)"/>
<path d="M0 0 C0.99 0.99 1.98 1.98 3 3 C2.01 3.99 1.02 4.98 0 6 C-0.99 5.67 -1.98 5.34 -3 5 C-3 4.34 -3 3.68 -3 3 C-2.34 3 -1.68 3 -1 3 C-0.67 2.01 -0.34 1.02 0 0 Z " fill="#9B8B7F" transform="translate(339,178)"/>
<path d="M0 0 C1.32 0 2.64 0 4 0 C4 0.66 4 1.32 4 2 C4.66 2.33 5.32 2.66 6 3 C5.01 3.33 4.02 3.66 3 4 C2.34 3.67 1.68 3.34 1 3 C0.67 3.66 0.34 4.32 0 5 C-0.5625 3.0625 -0.5625 3.0625 -1 1 C-0.67 0.67 -0.34 0.34 0 0 Z " fill="#1A2332" transform="translate(212,168)"/>
<path d="M0 0 C2.5 1.1875 2.5 1.1875 4.5 3.1875 C-1.03846154 3.55673077 -1.03846154 3.55673077 -3.375 1.6875 C-3.74625 1.1925 -4.1175 0.6975 -4.5 0.1875 C-2.5 -0.8125 -2.5 -0.8125 0 0 Z " fill="#8B89AE" transform="translate(289.5,132.8125)"/>
<path d="M0 0 C0 3.15987325 -0.38214873 4.36034793 -2 7 C-2.99 7.66 -3.98 8.32 -5 9 C-5.33 8.01 -5.66 7.02 -6 6 C-4.02 4.02 -2.04 2.04 0 0 Z " fill="#2B2E3A" transform="translate(329,310)"/>
<path d="M0 0 C0.66 0.33 1.32 0.66 2 1 C1.67 3.64 1.34 6.28 1 9 C0.01 8.67 -0.98 8.34 -2 8 C-1.34 5.36 -0.68 2.72 0 0 Z " fill="#206C88" transform="translate(290,287)"/>
<path d="M0 0 C1.98 1.65 3.96 3.3 6 5 C3.92446352 5.5534764 2.15634036 6 0 6 C0 4.02 0 2.04 0 0 Z " fill="#1D2836" transform="translate(200,274)"/>
<path d="M0 0 C0.66 0.66 1.32 1.32 2 2 C0.02 3.98 -1.96 5.96 -4 8 C-4.66 7.67 -5.32 7.34 -6 7 C-4.02 4.69 -2.04 2.38 0 0 Z " fill="#BABDC4" transform="translate(368,270)"/>
<path d="M0 0 C0.99 0.33 1.98 0.66 3 1 C1.35 2.65 -0.3 4.3 -2 6 C-2.99 5.67 -3.98 5.34 -5 5 C-3.35 3.35 -1.7 1.7 0 0 Z " fill="#161F2C" transform="translate(309,248)"/>
<path d="M0 0 C0.66 0.66 1.32 1.32 2 2 C0.35 3.32 -1.3 4.64 -3 6 C-3.33 4.68 -3.66 3.36 -4 2 C-2.68 1.34 -1.36 0.68 0 0 Z " fill="#867EB0" transform="translate(284,184)"/>
<path d="M0 0 C1.9451 2.91765 2.45276317 4.62537285 3 8 C2.01 8.33 1.02 8.66 0 9 C-1.125 3.375 -1.125 3.375 0 0 Z " fill="#1C2032" transform="translate(122,349)"/>
<path d="M0 0 C3.125 -0.1875 3.125 -0.1875 6 0 C5.01 1.485 5.01 1.485 4 3 C0.875 3.1875 0.875 3.1875 -2 3 C-1.34 2.01 -0.68 1.02 0 0 Z " fill="#256D84" transform="translate(266,330)"/>
<path d="M0 0 C1.65 1.32 3.3 2.64 5 4 C4.67 4.99 4.34 5.98 4 7 C2 5.75 2 5.75 0 4 C0 2.68 0 1.36 0 0 Z " fill="#29677B" transform="translate(285,282)"/>
<path d="M0 0 C0.33 0.66 0.66 1.32 1 2 C0.06694014 4.71435596 -0.62673377 5.78043163 -3.125 7.25 C-3.74375 7.4975 -4.3625 7.745 -5 8 C-3.8141763 4.62496331 -2.72426311 2.35277269 0 0 Z " fill="#52688B" transform="translate(177,208)"/>
<path d="M0 0 C3.875 1.75 3.875 1.75 5 4 C4.67 4.66 4.34 5.32 4 6 C3.01 5.67 2.02 5.34 1 5 C0.67 3.35 0.34 1.7 0 0 Z " fill="#9A928F" transform="translate(341,177)"/>
<path d="M0 0 C0.66 0.99 1.32 1.98 2 3 C0.68 4.65 -0.64 6.3 -2 8 C-2.66 7.67 -3.32 7.34 -4 7 C-1.125 1.125 -1.125 1.125 0 0 Z " fill="#886F8A" transform="translate(301,168)"/>
<path d="M0 0 C0.33 0.66 0.66 1.32 1 2 C-3.39453125 6.00390625 -3.39453125 6.00390625 -5 7 C-5.99 6.67 -6.98 6.34 -8 6 C-5.36 4.02 -2.72 2.04 0 0 Z " fill="#646F9A" transform="translate(260,133)"/>
</svg>
